<mxfile host="app.diagrams.net" modified="2024-04-20T06:46:35.344Z" agent="Mozilla/5.0 (Windows NT 10.0; Win64; x64) AppleWebKit/537.36 (KHTML, like Gecko) Chrome/123.0.0.0 Safari/537.36" etag="J-emWP0adevEUVEX2L9Q" version="24.2.7" type="device">
  <diagram name="Page-1" id="IU3F6zei4t61-OCcAAxU">
    <mxGraphModel dx="1120" dy="460" grid="1" gridSize="10" guides="1" tooltips="1" connect="1" arrows="1" fold="1" page="1" pageScale="1" pageWidth="850" pageHeight="1100" math="0" shadow="0">
      <root>
        <mxCell id="0" />
        <mxCell id="1" parent="0" />
        <mxCell id="dy2vzCiw7qn1QXJdjPOG-1" value="&lt;font style=&quot;font-size: 14px;&quot;&gt;Login&amp;nbsp;&lt;/font&gt;&lt;div&gt;&lt;font size=&quot;3&quot;&gt;&lt;br&gt;&lt;/font&gt;&lt;/div&gt;&lt;div&gt;&lt;font size=&quot;3&quot;&gt;1.0&lt;/font&gt;&lt;/div&gt;" style="ellipse;whiteSpace=wrap;html=1;" vertex="1" parent="1">
          <mxGeometry x="360" y="77.5" width="130" height="130" as="geometry" />
        </mxCell>
        <mxCell id="dy2vzCiw7qn1QXJdjPOG-2" value="&lt;font style=&quot;font-size: 14px;&quot;&gt;User&lt;/font&gt;" style="rounded=0;whiteSpace=wrap;html=1;" vertex="1" parent="1">
          <mxGeometry x="60" y="120" width="120" height="45" as="geometry" />
        </mxCell>
        <mxCell id="dy2vzCiw7qn1QXJdjPOG-4" value="&lt;font style=&quot;font-size: 14px;&quot;&gt;User DB&lt;/font&gt;" style="shape=partialRectangle;whiteSpace=wrap;html=1;left=0;right=0;fillColor=none;" vertex="1" parent="1">
          <mxGeometry x="660" y="120" width="120" height="45" as="geometry" />
        </mxCell>
        <mxCell id="dy2vzCiw7qn1QXJdjPOG-6" value="" style="endArrow=classic;html=1;rounded=0;entryX=-0.008;entryY=0.381;entryDx=0;entryDy=0;entryPerimeter=0;exitX=1;exitY=0.25;exitDx=0;exitDy=0;" edge="1" parent="1" source="dy2vzCiw7qn1QXJdjPOG-2" target="dy2vzCiw7qn1QXJdjPOG-1">
          <mxGeometry width="50" height="50" relative="1" as="geometry">
            <mxPoint x="400" y="230" as="sourcePoint" />
            <mxPoint x="450" y="180" as="targetPoint" />
          </mxGeometry>
        </mxCell>
        <mxCell id="dy2vzCiw7qn1QXJdjPOG-7" value="" style="endArrow=classic;html=1;rounded=0;entryX=1;entryY=0.75;entryDx=0;entryDy=0;exitX=-0.015;exitY=0.581;exitDx=0;exitDy=0;exitPerimeter=0;" edge="1" parent="1" source="dy2vzCiw7qn1QXJdjPOG-1" target="dy2vzCiw7qn1QXJdjPOG-2">
          <mxGeometry width="50" height="50" relative="1" as="geometry">
            <mxPoint x="400" y="230" as="sourcePoint" />
            <mxPoint x="450" y="180" as="targetPoint" />
          </mxGeometry>
        </mxCell>
        <mxCell id="dy2vzCiw7qn1QXJdjPOG-9" value="" style="endArrow=classic;html=1;rounded=0;entryX=1.023;entryY=0.604;entryDx=0;entryDy=0;entryPerimeter=0;exitX=0;exitY=0.75;exitDx=0;exitDy=0;" edge="1" parent="1" source="dy2vzCiw7qn1QXJdjPOG-4" target="dy2vzCiw7qn1QXJdjPOG-1">
          <mxGeometry width="50" height="50" relative="1" as="geometry">
            <mxPoint x="550" y="180" as="sourcePoint" />
            <mxPoint x="729" y="176" as="targetPoint" />
          </mxGeometry>
        </mxCell>
        <mxCell id="dy2vzCiw7qn1QXJdjPOG-11" value="&lt;font style=&quot;font-size: 14px; font-weight: normal;&quot;&gt;Login request&lt;/font&gt;" style="text;strokeColor=none;fillColor=none;html=1;fontSize=24;fontStyle=1;verticalAlign=middle;align=center;" vertex="1" parent="1">
          <mxGeometry x="220" y="90" width="100" height="40" as="geometry" />
        </mxCell>
        <mxCell id="dy2vzCiw7qn1QXJdjPOG-12" value="&lt;font style=&quot;font-size: 14px; font-weight: normal;&quot;&gt;MSG Confirmation&lt;/font&gt;" style="text;strokeColor=none;fillColor=none;html=1;fontSize=24;fontStyle=1;verticalAlign=middle;align=center;" vertex="1" parent="1">
          <mxGeometry x="230" y="140" width="100" height="40" as="geometry" />
        </mxCell>
        <mxCell id="dy2vzCiw7qn1QXJdjPOG-13" value="&lt;font style=&quot;font-size: 14px; font-weight: normal;&quot;&gt;Response&lt;/font&gt;" style="text;strokeColor=none;fillColor=none;html=1;fontSize=24;fontStyle=1;verticalAlign=middle;align=center;" vertex="1" parent="1">
          <mxGeometry x="520" y="150" width="100" height="40" as="geometry" />
        </mxCell>
        <mxCell id="dy2vzCiw7qn1QXJdjPOG-15" value="&lt;font style=&quot;font-size: 14px;&quot;&gt;Service Booking&lt;/font&gt;&lt;div&gt;&lt;font size=&quot;3&quot;&gt;&lt;br&gt;&lt;/font&gt;&lt;/div&gt;&lt;div&gt;&lt;font size=&quot;3&quot;&gt;2.0&lt;/font&gt;&lt;/div&gt;" style="ellipse;whiteSpace=wrap;html=1;" vertex="1" parent="1">
          <mxGeometry x="360" y="360" width="130" height="130" as="geometry" />
        </mxCell>
        <mxCell id="dy2vzCiw7qn1QXJdjPOG-16" value="" style="endArrow=classic;html=1;rounded=0;exitX=0.85;exitY=1;exitDx=0;exitDy=0;exitPerimeter=0;" edge="1" parent="1" source="dy2vzCiw7qn1QXJdjPOG-2" target="dy2vzCiw7qn1QXJdjPOG-15">
          <mxGeometry width="50" height="50" relative="1" as="geometry">
            <mxPoint x="200" y="290" as="sourcePoint" />
            <mxPoint x="379" y="286" as="targetPoint" />
          </mxGeometry>
        </mxCell>
        <mxCell id="dy2vzCiw7qn1QXJdjPOG-17" value="" style="endArrow=classic;html=1;rounded=0;entryX=0.558;entryY=0.956;entryDx=0;entryDy=0;entryPerimeter=0;exitX=0;exitY=0.308;exitDx=0;exitDy=0;exitPerimeter=0;" edge="1" parent="1" source="dy2vzCiw7qn1QXJdjPOG-15" target="dy2vzCiw7qn1QXJdjPOG-2">
          <mxGeometry width="50" height="50" relative="1" as="geometry">
            <mxPoint x="160" y="260" as="sourcePoint" />
            <mxPoint x="339" y="256" as="targetPoint" />
          </mxGeometry>
        </mxCell>
        <mxCell id="dy2vzCiw7qn1QXJdjPOG-18" value="&lt;font style=&quot;font-size: 14px; font-weight: normal;&quot;&gt;User Address&lt;/font&gt;" style="text;strokeColor=none;fillColor=none;html=1;fontSize=24;fontStyle=1;verticalAlign=middle;align=center;rotation=45;" vertex="1" parent="1">
          <mxGeometry x="268.36" y="268.11" width="100" height="47.07" as="geometry" />
        </mxCell>
        <mxCell id="dy2vzCiw7qn1QXJdjPOG-19" value="&lt;span style=&quot;font-size: 14px; font-weight: 400;&quot;&gt;Booking confirm&lt;/span&gt;" style="text;strokeColor=none;fillColor=none;html=1;fontSize=24;fontStyle=1;verticalAlign=middle;align=center;rotation=45;" vertex="1" parent="1">
          <mxGeometry x="200.45" y="294.33" width="100" height="17.5" as="geometry" />
        </mxCell>
        <mxCell id="dy2vzCiw7qn1QXJdjPOG-20" value="&lt;span style=&quot;font-size: 14px;&quot;&gt;Queries Sharing&lt;/span&gt;&lt;div&gt;&lt;br&gt;&lt;/div&gt;&lt;div&gt;&lt;span style=&quot;font-size: 14px;&quot;&gt;4.0&lt;/span&gt;&lt;/div&gt;" style="ellipse;whiteSpace=wrap;html=1;" vertex="1" parent="1">
          <mxGeometry x="55" y="360" width="130" height="130" as="geometry" />
        </mxCell>
        <mxCell id="dy2vzCiw7qn1QXJdjPOG-21" value="" style="endArrow=classic;html=1;rounded=0;entryX=0.317;entryY=0.956;entryDx=0;entryDy=0;entryPerimeter=0;exitX=0.354;exitY=-0.015;exitDx=0;exitDy=0;exitPerimeter=0;" edge="1" parent="1" source="dy2vzCiw7qn1QXJdjPOG-20" target="dy2vzCiw7qn1QXJdjPOG-2">
          <mxGeometry width="50" height="50" relative="1" as="geometry">
            <mxPoint x="100" y="270" as="sourcePoint" />
            <mxPoint x="-133" y="33" as="targetPoint" />
          </mxGeometry>
        </mxCell>
        <mxCell id="dy2vzCiw7qn1QXJdjPOG-22" value="" style="endArrow=classic;html=1;rounded=0;entryX=0.5;entryY=0;entryDx=0;entryDy=0;exitX=0.442;exitY=1.044;exitDx=0;exitDy=0;exitPerimeter=0;" edge="1" parent="1" source="dy2vzCiw7qn1QXJdjPOG-2" target="dy2vzCiw7qn1QXJdjPOG-20">
          <mxGeometry width="50" height="50" relative="1" as="geometry">
            <mxPoint x="230" y="380" as="sourcePoint" />
            <mxPoint x="-3" y="143" as="targetPoint" />
          </mxGeometry>
        </mxCell>
        <mxCell id="dy2vzCiw7qn1QXJdjPOG-23" value="&lt;span style=&quot;font-size: 14px; font-weight: 400;&quot;&gt;Query Details/Suggestions&lt;/span&gt;" style="text;strokeColor=none;fillColor=none;html=1;fontSize=24;fontStyle=1;verticalAlign=middle;align=center;rotation=90;" vertex="1" parent="1">
          <mxGeometry x="85.00252339470967" y="260.00252339470967" width="100" height="17.5" as="geometry" />
        </mxCell>
        <mxCell id="dy2vzCiw7qn1QXJdjPOG-24" value="&lt;span style=&quot;font-size: 14px; font-weight: 400;&quot;&gt;Query Stored&lt;/span&gt;" style="text;strokeColor=none;fillColor=none;html=1;fontSize=24;fontStyle=1;verticalAlign=middle;align=center;rotation=90;" vertex="1" parent="1">
          <mxGeometry x="40.00252339470966" y="294.3325233947097" width="100" height="17.5" as="geometry" />
        </mxCell>
        <mxCell id="dy2vzCiw7qn1QXJdjPOG-25" value="Contact DB" style="shape=partialRectangle;whiteSpace=wrap;html=1;left=0;right=0;fillColor=none;" vertex="1" parent="1">
          <mxGeometry x="140" y="660" width="120" height="40" as="geometry" />
        </mxCell>
        <mxCell id="dy2vzCiw7qn1QXJdjPOG-26" value="" style="endArrow=classic;html=1;rounded=0;entryX=0.5;entryY=0;entryDx=0;entryDy=0;exitX=0.777;exitY=0.954;exitDx=0;exitDy=0;exitPerimeter=0;" edge="1" parent="1" source="dy2vzCiw7qn1QXJdjPOG-20" target="dy2vzCiw7qn1QXJdjPOG-25">
          <mxGeometry width="50" height="50" relative="1" as="geometry">
            <mxPoint x="130" y="560" as="sourcePoint" />
            <mxPoint x="-103" y="323" as="targetPoint" />
          </mxGeometry>
        </mxCell>
        <mxCell id="dy2vzCiw7qn1QXJdjPOG-27" value="&lt;span style=&quot;font-size: 14px; font-weight: 400;&quot;&gt;Stored Details&lt;/span&gt;" style="text;strokeColor=none;fillColor=none;html=1;fontSize=24;fontStyle=1;verticalAlign=middle;align=center;rotation=75;" vertex="1" parent="1">
          <mxGeometry x="140.00709715455275" y="540.0020971545528" width="100" height="47.07" as="geometry" />
        </mxCell>
        <mxCell id="dy2vzCiw7qn1QXJdjPOG-29" value="&lt;span style=&quot;font-size: 14px;&quot;&gt;Admin&lt;/span&gt;" style="rounded=0;whiteSpace=wrap;html=1;" vertex="1" parent="1">
          <mxGeometry x="660" y="402.5" width="120" height="45" as="geometry" />
        </mxCell>
        <mxCell id="dy2vzCiw7qn1QXJdjPOG-31" value="" style="endArrow=classic;html=1;rounded=0;entryX=1;entryY=0.5;entryDx=0;entryDy=0;exitX=0;exitY=0.5;exitDx=0;exitDy=0;" edge="1" parent="1" source="dy2vzCiw7qn1QXJdjPOG-29" target="dy2vzCiw7qn1QXJdjPOG-15">
          <mxGeometry width="50" height="50" relative="1" as="geometry">
            <mxPoint x="560" y="450" as="sourcePoint" />
            <mxPoint x="393" y="452" as="targetPoint" />
          </mxGeometry>
        </mxCell>
        <mxCell id="dy2vzCiw7qn1QXJdjPOG-32" value="&lt;span style=&quot;font-size: 14px; font-weight: 400;&quot;&gt;Booking Status&lt;/span&gt;" style="text;strokeColor=none;fillColor=none;html=1;fontSize=24;fontStyle=1;verticalAlign=middle;align=center;" vertex="1" parent="1">
          <mxGeometry x="530" y="420" width="100" height="40" as="geometry" />
        </mxCell>
        <mxCell id="dy2vzCiw7qn1QXJdjPOG-34" value="Booking DB" style="shape=partialRectangle;whiteSpace=wrap;html=1;left=0;right=0;fillColor=none;" vertex="1" parent="1">
          <mxGeometry x="520" y="670" width="120" height="40" as="geometry" />
        </mxCell>
        <mxCell id="dy2vzCiw7qn1QXJdjPOG-35" value="" style="endArrow=classic;html=1;rounded=0;entryX=0.167;entryY=-0.075;entryDx=0;entryDy=0;exitX=0.738;exitY=0.962;exitDx=0;exitDy=0;exitPerimeter=0;entryPerimeter=0;" edge="1" parent="1" source="dy2vzCiw7qn1QXJdjPOG-15" target="dy2vzCiw7qn1QXJdjPOG-34">
          <mxGeometry width="50" height="50" relative="1" as="geometry">
            <mxPoint x="460" y="590" as="sourcePoint" />
            <mxPoint x="290" y="590" as="targetPoint" />
          </mxGeometry>
        </mxCell>
        <mxCell id="dy2vzCiw7qn1QXJdjPOG-36" value="" style="endArrow=classic;html=1;rounded=0;entryX=0.442;entryY=0.989;entryDx=0;entryDy=0;exitX=0.75;exitY=0;exitDx=0;exitDy=0;entryPerimeter=0;" edge="1" parent="1" source="dy2vzCiw7qn1QXJdjPOG-34" target="dy2vzCiw7qn1QXJdjPOG-29">
          <mxGeometry width="50" height="50" relative="1" as="geometry">
            <mxPoint x="660" y="540" as="sourcePoint" />
            <mxPoint x="490" y="540" as="targetPoint" />
          </mxGeometry>
        </mxCell>
        <mxCell id="dy2vzCiw7qn1QXJdjPOG-37" value="&lt;span style=&quot;font-size: 14px; font-weight: 400;&quot;&gt;Stored&lt;/span&gt;" style="text;strokeColor=none;fillColor=none;html=1;fontSize=24;fontStyle=1;verticalAlign=middle;align=center;rotation=60;" vertex="1" parent="1">
          <mxGeometry x="430" y="550" width="100" height="40" as="geometry" />
        </mxCell>
        <mxCell id="dy2vzCiw7qn1QXJdjPOG-38" value="&lt;span style=&quot;font-size: 14px; font-weight: 400;&quot;&gt;Booking Details&lt;/span&gt;" style="text;strokeColor=none;fillColor=none;html=1;fontSize=24;fontStyle=1;verticalAlign=middle;align=center;rotation=-60;" vertex="1" parent="1">
          <mxGeometry x="622.8" y="548.39" width="100" height="33.54" as="geometry" />
        </mxCell>
        <mxCell id="dy2vzCiw7qn1QXJdjPOG-43" style="edgeStyle=orthogonalEdgeStyle;rounded=0;orthogonalLoop=1;jettySize=auto;html=1;exitX=1;exitY=0.5;exitDx=0;exitDy=0;entryX=0.75;entryY=1;entryDx=0;entryDy=0;" edge="1" parent="1" source="dy2vzCiw7qn1QXJdjPOG-40" target="dy2vzCiw7qn1QXJdjPOG-29">
          <mxGeometry relative="1" as="geometry" />
        </mxCell>
        <mxCell id="dy2vzCiw7qn1QXJdjPOG-40" value="&lt;span style=&quot;font-size: 14px;&quot;&gt;Payment&lt;/span&gt;&lt;div&gt;&lt;span style=&quot;font-size: 14px;&quot;&gt;&lt;br&gt;&lt;/span&gt;&lt;/div&gt;&lt;div&gt;&lt;span style=&quot;font-size: 14px;&quot;&gt;3.0&lt;/span&gt;&lt;/div&gt;" style="ellipse;whiteSpace=wrap;html=1;" vertex="1" parent="1">
          <mxGeometry x="360" y="810" width="130" height="130" as="geometry" />
        </mxCell>
        <mxCell id="dy2vzCiw7qn1QXJdjPOG-41" value="" style="endArrow=classic;html=1;rounded=0;exitX=0.5;exitY=1;exitDx=0;exitDy=0;" edge="1" parent="1" source="dy2vzCiw7qn1QXJdjPOG-15" target="dy2vzCiw7qn1QXJdjPOG-40">
          <mxGeometry width="50" height="50" relative="1" as="geometry">
            <mxPoint x="410" y="710" as="sourcePoint" />
            <mxPoint x="494" y="892" as="targetPoint" />
          </mxGeometry>
        </mxCell>
        <mxCell id="dy2vzCiw7qn1QXJdjPOG-42" value="&lt;span style=&quot;font-size: 14px; font-weight: 400;&quot;&gt;Payment Details&lt;/span&gt;" style="text;strokeColor=none;fillColor=none;html=1;fontSize=24;fontStyle=1;verticalAlign=middle;align=center;rotation=90;" vertex="1" parent="1">
          <mxGeometry x="360.0005080756888" y="670.0012701892219" width="100" height="40" as="geometry" />
        </mxCell>
        <mxCell id="dy2vzCiw7qn1QXJdjPOG-44" value="&lt;span style=&quot;font-size: 14px; font-weight: 400;&quot;&gt;Payment Done&lt;/span&gt;" style="text;strokeColor=none;fillColor=none;html=1;fontSize=24;fontStyle=1;verticalAlign=middle;align=center;rotation=0;" vertex="1" parent="1">
          <mxGeometry x="570.0005080756888" y="840.0012701892219" width="100" height="40" as="geometry" />
        </mxCell>
        <mxCell id="dy2vzCiw7qn1QXJdjPOG-45" value="Payment DB" style="shape=partialRectangle;whiteSpace=wrap;html=1;left=0;right=0;fillColor=none;" vertex="1" parent="1">
          <mxGeometry x="365" y="1040" width="120" height="40" as="geometry" />
        </mxCell>
        <mxCell id="dy2vzCiw7qn1QXJdjPOG-46" value="" style="endArrow=classic;html=1;rounded=0;exitX=0.5;exitY=1;exitDx=0;exitDy=0;entryX=0.5;entryY=0;entryDx=0;entryDy=0;" edge="1" parent="1" source="dy2vzCiw7qn1QXJdjPOG-40" target="dy2vzCiw7qn1QXJdjPOG-45">
          <mxGeometry width="50" height="50" relative="1" as="geometry">
            <mxPoint x="410" y="990" as="sourcePoint" />
            <mxPoint x="410" y="1310" as="targetPoint" />
          </mxGeometry>
        </mxCell>
        <mxCell id="dy2vzCiw7qn1QXJdjPOG-47" value="&lt;span style=&quot;font-size: 14px; font-weight: 400;&quot;&gt;Stored&lt;/span&gt;" style="text;strokeColor=none;fillColor=none;html=1;fontSize=24;fontStyle=1;verticalAlign=middle;align=center;rotation=90;" vertex="1" parent="1">
          <mxGeometry x="390" y="960" width="100" height="40" as="geometry" />
        </mxCell>
        <mxCell id="dy2vzCiw7qn1QXJdjPOG-48" value="" style="endArrow=classic;html=1;rounded=0;exitX=1.015;exitY=0.373;exitDx=0;exitDy=0;exitPerimeter=0;entryX=0;entryY=0.25;entryDx=0;entryDy=0;" edge="1" parent="1" source="dy2vzCiw7qn1QXJdjPOG-1" target="dy2vzCiw7qn1QXJdjPOG-4">
          <mxGeometry width="50" height="50" relative="1" as="geometry">
            <mxPoint x="492" y="126" as="sourcePoint" />
            <mxPoint x="660" y="126" as="targetPoint" />
            <Array as="points" />
          </mxGeometry>
        </mxCell>
        <mxCell id="dy2vzCiw7qn1QXJdjPOG-14" value="&lt;font style=&quot;font-size: 14px; font-weight: normal;&quot;&gt;User Details&lt;/font&gt;" style="text;strokeColor=none;fillColor=none;html=1;fontSize=24;fontStyle=1;verticalAlign=middle;align=center;" vertex="1" parent="1">
          <mxGeometry x="520" y="90" width="100" height="40" as="geometry" />
        </mxCell>
      </root>
    </mxGraphModel>
  </diagram>
</mxfile>
